<svg width="50" height="50" viewBox="0 0 50 50" fill="none" xmlns="http://www.w3.org/2000/svg">
<path d="M25 50C21.5417 50 18.2917 49.3438 15.25 48.0312C12.2083 46.7188 9.5625 44.9375 7.3125 42.6875C5.0625 40.4375 3.28125 37.7917 1.96875 34.75C0.65625 31.7083 0 28.4583 0 25C0 21.5417 0.65625 18.2917 1.96875 15.25C3.28125 12.2083 5.0625 9.5625 7.3125 7.3125C9.5625 5.0625 12.2083 3.28125 15.25 1.96875C18.2917 0.65625 21.5417 0 25 0C28.4583 0 31.7083 0.65625 34.75 1.96875C37.7917 3.28125 40.4375 5.0625 42.6875 7.3125C44.9375 9.5625 46.7188 12.2083 48.0312 15.25C49.3438 18.2917 50 21.5417 50 25C50 28.4583 49.3438 31.7083 48.0312 34.75C46.7188 37.7917 44.9375 40.4375 42.6875 42.6875C40.4375 44.9375 37.7917 46.7188 34.75 48.0312C31.7083 49.3438 28.4583 50 25 50ZM22.3125 46.1875V41.0625C20.8542 41.0625 19.625 40.5208 18.625 39.4375C17.625 38.3542 17.125 37.0833 17.125 35.625V32.875L4.3125 20.0625C4.10417 20.8958 3.95833 21.7188 3.875 22.5312C3.79167 23.3438 3.75 24.1667 3.75 25C3.75 30.4167 5.51042 35.1458 9.03125 39.1875C12.5521 43.2292 16.9792 45.5625 22.3125 46.1875ZM40.6875 39.4375C41.6042 38.4375 42.4062 37.375 43.0938 36.25C43.7812 35.125 44.3646 33.9479 44.8438 32.7188C45.3229 31.4896 45.6771 30.2292 45.9062 28.9375C46.1354 27.6458 46.25 26.3333 46.25 25C46.25 20.5833 45.0417 16.5729 42.625 12.9688C40.2083 9.36458 36.9792 6.72917 32.9375 5.0625V6.1875C32.9375 7.64583 32.4375 8.91667 31.4375 10C30.4375 11.0833 29.2083 11.625 27.75 11.625H22.3125V17.0625C22.3125 17.7708 22.0312 18.3542 21.4688 18.8125C20.9062 19.2708 20.2708 19.5 19.5625 19.5H14.375V25H30.5C31.2083 25 31.7917 25.2708 32.25 25.8125C32.7083 26.3542 32.9375 26.9792 32.9375 27.6875V35.625H35.625C36.8333 35.625 37.8958 35.9792 38.8125 36.6875C39.7292 37.3958 40.3542 38.3125 40.6875 39.4375Z" fill="#3D6CBB"/>
</svg>
