<svg width="50" height="43" viewBox="0 0 50 43" fill="none" xmlns="http://www.w3.org/2000/svg">
<path d="M2.5 3.59833V0H10V3.59833H2.5ZM9.625 16.7922L6.9375 14.2734L12.25 9.17573L14.9375 11.6946L9.625 16.7922ZM25 10.795C21.9167 10.795 19.3125 9.74547 17.1875 7.64644C15.0625 5.54742 13.9167 2.99861 13.75 0H17.5C17.625 1.99907 18.3958 3.69828 19.8125 5.09763C21.2292 6.49698 22.9583 7.19665 25 7.19665C27.0417 7.19665 28.7708 6.49698 30.1875 5.09763C31.6042 3.69828 32.375 1.99907 32.5 0H36.25C36.0833 2.99861 34.9375 5.54742 32.8125 7.64644C30.6875 9.74547 28.0833 10.795 25 10.795ZM23.125 21.59V14.3933H26.875V21.59H23.125ZM40.375 16.7322L35.0625 11.6346L37.6875 9.11576L43.0625 14.1534L40.375 16.7322ZM40 3.59833V0H47.5V3.59833H40ZM0 42.5202V38.9219C1.58333 38.9219 2.86458 38.4621 3.84375 37.5425C4.82292 36.623 6.25 36.1632 8.125 36.1632C10 36.1632 11.4583 36.7029 12.5 37.7824C13.5417 38.8619 14.875 39.4017 16.5 39.4017C18.125 39.4017 19.4792 38.8619 20.5625 37.7824C21.6458 36.7029 23.125 36.1632 25 36.1632C26.875 36.1632 28.3438 36.7029 29.4062 37.7824C30.4688 38.8619 31.8125 39.4017 33.4375 39.4017C35.0625 39.4017 36.4062 38.8619 37.4688 37.7824C38.5312 36.7029 40 36.1632 41.875 36.1632C43.75 36.1632 45.1771 36.623 46.1562 37.5425C47.1354 38.4621 48.4167 38.9219 50 38.9219V42.5202C48.0417 42.5202 46.5938 42.0604 45.6562 41.1409C44.7188 40.2213 43.4583 39.7615 41.875 39.7615C40.2917 39.7615 38.9583 40.3013 37.875 41.3808C36.7917 42.4603 35.3125 43 33.4375 43C31.5625 43 30.0833 42.4603 29 41.3808C27.9167 40.3013 26.5833 39.7615 25 39.7615C23.4167 39.7615 22.0729 40.3013 20.9688 41.3808C19.8646 42.4603 18.375 43 16.5 43C14.625 43 13.1562 42.4603 12.0938 41.3808C11.0312 40.3013 9.70833 39.7615 8.125 39.7615C6.54167 39.7615 5.28125 40.2213 4.34375 41.1409C3.40625 42.0604 1.95833 42.5202 0 42.5202ZM0 32.9247V29.3264C1.58333 29.3264 2.86458 28.8666 3.84375 27.947C4.82292 27.0274 6.25 26.5676 8.125 26.5676C10 26.5676 11.4583 27.1074 12.5 28.1869C13.5417 29.2664 14.875 29.8061 16.5 29.8061C18.125 29.8061 19.4792 29.2664 20.5625 28.1869C21.6458 27.1074 23.125 26.5676 25 26.5676C26.875 26.5676 28.3438 27.1074 29.4062 28.1869C30.4688 29.2664 31.8125 29.8061 33.4375 29.8061C35.0625 29.8061 36.4062 29.2664 37.4688 28.1869C38.5312 27.1074 40 26.5676 41.875 26.5676C43.75 26.5676 45.1771 27.0274 46.1562 27.947C47.1354 28.8666 48.4167 29.3264 50 29.3264V32.9247C48.0417 32.9247 46.5938 32.4649 45.6562 31.5453C44.7188 30.6258 43.4583 30.166 41.875 30.166C40.2917 30.166 38.9583 30.7057 37.875 31.7852C36.7917 32.8647 35.3125 33.4045 33.4375 33.4045C31.5625 33.4045 30.0833 32.8647 29 31.7852C27.9167 30.7057 26.5833 30.166 25 30.166C23.4167 30.166 22.0729 30.7057 20.9688 31.7852C19.8646 32.8647 18.375 33.4045 16.5 33.4045C14.625 33.4045 13.1562 32.8647 12.0938 31.7852C11.0312 30.7057 9.70833 30.166 8.125 30.166C6.54167 30.166 5.28125 30.6258 4.34375 31.5453C3.40625 32.4649 1.95833 32.9247 0 32.9247Z" fill="#3D6CBB"/>
</svg>
