<svg width="80" height="80" viewBox="0 0 80 80" fill="none" xmlns="http://www.w3.org/2000/svg">
<path d="M29.0001 52.9167L59.6667 44.5C60.6112 44.2222 61.3056 43.7778 61.7501 43.1667C62.1945 42.5555 62.2779 41.7778 62.0001 40.8333C61.7223 39.8889 61.2223 39.2361 60.5001 38.875C59.7779 38.5139 58.978 38.4481 58.1004 38.6777L49.5001 40.9167L35.6667 27.4167L31.3334 28.4167L39.9167 43.5L30.6667 46.0833L26.3334 42.5L23.9167 43.3333L29.0001 52.9167ZM68.3334 66.6667H11.6667C10.2917 66.6667 9.11466 66.1771 8.1355 65.1979C7.15633 64.2187 6.66675 63.0417 6.66675 61.6667V48.9167C8.7223 48.4722 10.4306 47.4305 11.7917 45.7917C13.1529 44.1528 13.8334 42.2222 13.8334 40C13.8334 37.7778 13.1529 35.8333 11.7917 34.1667C10.4306 32.5 8.7223 31.4722 6.66675 31.0833V18.3333C6.66675 16.9583 7.15633 15.7812 8.1355 14.8021C9.11466 13.8229 10.2917 13.3333 11.6667 13.3333H68.3334C69.7084 13.3333 70.8855 13.8229 71.8647 14.8021C72.8438 15.7812 73.3334 16.9583 73.3334 18.3333V61.6667C73.3334 63.0417 72.8438 64.2187 71.8647 65.1979C70.8855 66.1771 69.7084 66.6667 68.3334 66.6667ZM68.3334 61.6667V18.3333H11.6667V27.4167C13.8334 28.8611 15.5695 30.6667 16.8751 32.8333C18.1806 35 18.8334 37.3889 18.8334 40C18.8334 42.6111 18.1806 45 16.8751 47.1667C15.5695 49.3333 13.8334 51.1389 11.6667 52.5833V61.6667H68.3334Z" fill="#756558"/>
</svg>
