<svg width="50" height="48" viewBox="0 0 50 48" fill="none" xmlns="http://www.w3.org/2000/svg">
<path d="M0 48V44.2105H23.125V13.6421C22.0417 13.2632 21.0729 12.6421 20.2188 11.7789C19.3646 10.9158 18.75 9.93684 18.375 8.8421H8.4375L16.25 27.9158C16.2083 29.8105 15.4062 31.4211 13.8438 32.7474C12.2812 34.0737 10.375 34.7368 8.125 34.7368C5.875 34.7368 3.96875 34.0737 2.40625 32.7474C0.84375 31.4211 0.0416667 29.8105 0 27.9158L7.8125 8.8421H2.5V5.05263H18.375C18.875 3.57895 19.7292 2.36842 20.9375 1.42105C22.1458 0.473684 23.5 0 25 0C26.5 0 27.8542 0.473684 29.0625 1.42105C30.2708 2.36842 31.125 3.57895 31.625 5.05263H47.5V8.8421H42.1875L50 27.9158C49.9583 29.8105 49.1562 31.4211 47.5938 32.7474C46.0312 34.0737 44.125 34.7368 41.875 34.7368C39.625 34.7368 37.7188 34.0737 36.1562 32.7474C34.5938 31.4211 33.7917 29.8105 33.75 27.9158L41.5625 8.8421H31.625C31.25 9.93684 30.6354 10.9158 29.7812 11.7789C28.9271 12.6421 27.9583 13.2632 26.875 13.6421V44.2105H50V48H0ZM37.1875 27.7895H46.5625L41.875 16.1684L37.1875 27.7895ZM3.4375 27.7895H12.8125L8.125 16.1684L3.4375 27.7895ZM25 10.1053C25.875 10.1053 26.6146 9.78947 27.2188 9.15789C27.8229 8.52632 28.125 7.78947 28.125 6.94737C28.125 6.06316 27.8229 5.31579 27.2188 4.70526C26.6146 4.09474 25.875 3.78947 25 3.78947C24.1667 3.78947 23.4375 4.09474 22.8125 4.70526C22.1875 5.31579 21.875 6.06316 21.875 6.94737C21.875 7.78947 22.1875 8.52632 22.8125 9.15789C23.4375 9.78947 24.1667 10.1053 25 10.1053Z" fill="#3D6CBB"/>
</svg>
