<svg width="14" height="10" viewBox="0 0 14 10" fill="none" xmlns="http://www.w3.org/2000/svg">
<path d="M0 9.8V5.6C0 5.285 0.0641667 4.99917 0.1925 4.7425C0.320833 4.48583 0.49 4.25833 0.7 4.06V2.1C0.7 1.51667 0.904167 1.02083 1.3125 0.6125C1.72083 0.204167 2.21667 0 2.8 0H5.6C5.86833 0 6.11917 0.0496999 6.3525 0.1491C6.58583 0.2485 6.80167 0.385467 7 0.56C7.19833 0.385 7.41417 0.248033 7.6475 0.1491C7.88083 0.0501665 8.13167 0.000466667 8.4 0H11.2C11.7833 0 12.2792 0.204167 12.6875 0.6125C13.0958 1.02083 13.3 1.51667 13.3 2.1V4.06C13.51 4.25833 13.6792 4.48583 13.8075 4.7425C13.9358 4.99917 14 5.285 14 5.6V9.8H12.6V8.4H1.4V9.8H0ZM7.7 3.5H11.9V2.1C11.9 1.90167 11.8328 1.7353 11.6984 1.6009C11.564 1.4665 11.3979 1.39953 11.2 1.4H8.4C8.20167 1.4 8.0353 1.4672 7.9009 1.6016C7.7665 1.736 7.69953 1.90213 7.7 2.1V3.5ZM2.1 3.5H6.3V2.1C6.3 1.90167 6.2328 1.7353 6.0984 1.6009C5.964 1.4665 5.79787 1.39953 5.6 1.4H2.8C2.60167 1.4 2.4353 1.4672 2.3009 1.6016C2.1665 1.736 2.09953 1.90213 2.1 2.1V3.5ZM1.4 7H12.6V5.6C12.6 5.40167 12.5328 5.2353 12.3984 5.1009C12.264 4.9665 12.0979 4.89953 11.9 4.9H2.1C1.90167 4.9 1.7353 4.9672 1.6009 5.1016C1.4665 5.236 1.39953 5.40213 1.4 5.6V7Z" fill="#B7B7B7"/>
</svg>
