<svg width="15" height="15" viewBox="0 0 15 15" fill="none" xmlns="http://www.w3.org/2000/svg">
<path d="M9.95616 7.83943L4.73147 12.8176C4.64429 12.9007 4.52847 12.947 4.40803 12.947C4.28759 12.947 4.17177 12.9007 4.08459 12.8176L4.07897 12.8119C4.03656 12.7716 4.00279 12.7232 3.97972 12.6694C3.95664 12.6157 3.94474 12.5578 3.94474 12.4993C3.94474 12.4408 3.95664 12.3829 3.97972 12.3292C4.00279 12.2754 4.03656 12.2269 4.07897 12.1866L8.99897 7.49912L4.07897 2.81349C4.03656 2.77321 4.00279 2.72471 3.97972 2.67096C3.95664 2.61721 3.94474 2.55933 3.94474 2.50084C3.94474 2.44234 3.95664 2.38446 3.97972 2.33071C4.00279 2.27696 4.03656 2.22847 4.07897 2.18818L4.08459 2.18256C4.17177 2.09945 4.28759 2.05309 4.40803 2.05309C4.52847 2.05309 4.64429 2.09945 4.73147 2.18256L9.95616 7.16068C10.0021 7.20446 10.0387 7.25711 10.0637 7.31545C10.0887 7.37379 10.1016 7.43659 10.1016 7.50006C10.1016 7.56352 10.0887 7.62633 10.0637 7.68466C10.0387 7.743 10.0021 7.79565 9.95616 7.83943Z" fill="#0e2341"/>
</svg>
