<svg width="15" height="15" viewBox="0 0 15 15" fill="none" xmlns="http://www.w3.org/2000/svg">
<path d="M5.04384 7.83943L10.2685 12.8176C10.3557 12.9007 10.4715 12.947 10.592 12.947C10.7124 12.947 10.8282 12.9007 10.9154 12.8176L10.921 12.8119C10.9634 12.7716 10.9972 12.7232 11.0203 12.6694C11.0434 12.6157 11.0553 12.5578 11.0553 12.4993C11.0553 12.4408 11.0434 12.3829 11.0203 12.3292C10.9972 12.2754 10.9634 12.2269 10.921 12.1866L6.00103 7.49912L10.921 2.81349C10.9634 2.77321 10.9972 2.72471 11.0203 2.67096C11.0434 2.61721 11.0553 2.55933 11.0553 2.50084C11.0553 2.44234 11.0434 2.38446 11.0203 2.33071C10.9972 2.27696 10.9634 2.22847 10.921 2.18818L10.9154 2.18256C10.8282 2.09945 10.7124 2.05309 10.592 2.05309C10.4715 2.05309 10.3557 2.09945 10.2685 2.18256L5.04384 7.16068C4.9979 7.20446 4.96131 7.25711 4.93632 7.31545C4.91133 7.37379 4.89844 7.43659 4.89844 7.50006C4.89844 7.56352 4.91133 7.62633 4.93632 7.68466C4.96131 7.743 4.9979 7.79565 5.04384 7.83943Z" fill="white"/>
</svg>
