<svg width="80" height="80" viewBox="0 0 80 80" fill="none" xmlns="http://www.w3.org/2000/svg">
<path d="M56.6667 52.5C53.8889 52.5 51.5278 51.5278 49.5833 49.5833C47.6389 47.6389 46.6667 45.2778 46.6667 42.5C46.6667 39.7222 47.6389 37.3611 49.5833 35.4167C51.5278 33.4722 53.8889 32.5 56.6667 32.5C59.4444 32.5 61.8056 33.4722 63.75 35.4167C65.6944 37.3611 66.6667 39.7222 66.6667 42.5C66.6667 45.2778 65.6944 47.6389 63.75 49.5833C61.8056 51.5278 59.4444 52.5 56.6667 52.5ZM56.6667 47.5C58.0833 47.5 59.2708 47.0208 60.2292 46.0625C61.1875 45.1042 61.6667 43.9167 61.6667 42.5C61.6667 41.0833 61.1875 39.8958 60.2292 38.9375C59.2708 37.9792 58.0833 37.5 56.6667 37.5C55.25 37.5 54.0625 37.9792 53.1042 38.9375C52.1458 39.8958 51.6667 41.0833 51.6667 42.5C51.6667 43.9167 52.1458 45.1042 53.1042 46.0625C54.0625 47.0208 55.25 47.5 56.6667 47.5ZM36.6667 75.8333V66.1667C36.6667 65 36.9444 63.9028 37.5 62.875C38.0556 61.8472 38.8333 61.0278 39.8333 60.4167C41.3889 59.4722 43 58.6528 44.6667 57.9583C46.3333 57.2639 48.0556 56.6944 49.8333 56.25L56.6667 65.0833L63.5 56.25C65.2778 56.6944 66.9861 57.2639 68.625 57.9583C70.2639 58.6528 71.8611 59.4722 73.4167 60.4167C74.4167 61.0278 75.2083 61.8472 75.7917 62.875C76.375 63.9028 76.6667 65 76.6667 66.1667V75.8333H36.6667ZM41.6667 70.8333H54.75L47.9167 62C46.8056 62.4444 45.7222 62.9306 44.6667 63.4583C43.6111 63.9861 42.6111 64.5556 41.6667 65.1667V70.8333ZM58.5833 70.8333H71.6667V65.1667C70.7222 64.5556 69.7361 63.9861 68.7083 63.4583C67.6806 62.9306 66.6111 62.4444 65.5 62L58.5833 70.8333ZM15 70C13.625 70 12.4479 69.5104 11.4687 68.5312C10.4896 67.5521 10 66.375 10 65V15C10 13.625 10.4896 12.4479 11.4687 11.4688C12.4479 10.4896 13.625 10 15 10H65C66.375 10 67.5521 10.4896 68.5312 11.4688C69.5104 12.4479 70 13.625 70 15V35.5833C69.3889 34.4722 68.6667 33.4444 67.8333 32.5C67 31.5556 66.0556 30.7222 65 30V15H15V65H31.6667V70H15ZM23.3333 28.3333H51.75C52.5278 28.0556 53.3289 27.8472 54.1533 27.7083C54.9778 27.5694 55.8156 27.5 56.6667 27.5V23.3333H23.3333V28.3333ZM23.3333 42.5H41.6667C41.6667 41.6667 41.7361 40.8194 41.875 39.9583C42.0139 39.0972 42.2222 38.2778 42.5 37.5H23.3333V42.5ZM23.3333 56.6667H36.5C37.4444 55.9444 38.4444 55.3472 39.5 54.875C40.5556 54.4028 41.6389 53.9444 42.75 53.5V51.6667H23.3333V56.6667ZM15 65V15V30V27.5V65Z" fill="#756558"/>
</svg>
