<svg width="80" height="80" viewBox="0 0 80 80" fill="none" xmlns="http://www.w3.org/2000/svg">
<path d="M11.6667 70C10.3334 70 9.16675 69.5 8.16675 68.5C7.16675 67.5 6.66675 66.3333 6.66675 65V25C6.66675 23.6667 7.16675 22.5 8.16675 21.5C9.16675 20.5 10.3334 20 11.6667 20H26.6667V11.6667C26.6667 10.3333 27.1667 9.16667 28.1667 8.16667C29.1667 7.16667 30.3334 6.66667 31.6667 6.66667H48.3334C49.6667 6.66667 50.8334 7.16667 51.8334 8.16667C52.8334 9.16667 53.3334 10.3333 53.3334 11.6667V20H68.3334C69.6667 20 70.8334 20.5 71.8334 21.5C72.8334 22.5 73.3334 23.6667 73.3334 25V65C73.3334 66.3333 72.8334 67.5 71.8334 68.5C70.8334 69.5 69.6667 70 68.3334 70H11.6667ZM31.6667 20H48.3334V11.6667H31.6667V20ZM68.3334 49.0833H47.5834V54.0833H32.5834V49.0833H11.6667V65H68.3334V49.0833ZM37.5834 49.0833H42.5834V44.0833H37.5834V49.0833ZM11.6667 44.0833H32.5834V39.0833H47.5834V44.0833H68.3334V25H11.6667V44.0833Z" fill="#756558"/>
</svg>
