<svg width="22" height="22" viewBox="0 0 22 22" fill="none" xmlns="http://www.w3.org/2000/svg">
<path d="M20.351 22H14.4841C14.2142 22 13.9952 21.781 13.9952 21.5111V13.3701C13.9952 13.1003 14.2142 12.8812 14.4841 12.8812H16.7867L17.0698 10.6864H14.4841C14.2142 10.6864 13.9952 10.4674 13.9952 10.1975V8.17202C13.9952 7.29911 14.2088 6.13849 16.0563 6.13849L17.2475 6.138V4.23109C16.7902 4.19344 16.0749 4.15287 15.2883 4.15287C13.0394 4.15287 11.6967 5.53789 11.6967 7.85767V10.1975C11.6967 10.4674 11.4776 10.6864 11.2078 10.6864H8.95693V12.8812H11.2078C11.4776 12.8812 11.6967 13.1003 11.6967 13.3701V21.5111C11.6967 21.781 11.4776 22 11.2078 22H1.64927C0.739933 22 0 21.2603 0 20.3507V1.64927C0 0.739689 0.739933 0 1.64927 0H20.351C21.2603 0 22 0.739689 22 1.64927V20.3507C22 21.2603 21.2603 22 20.351 22ZM14.973 21.0222H20.351C20.7213 21.0222 21.0222 20.7211 21.0222 20.3507V1.64927C21.0222 1.27893 20.7213 0.977778 20.351 0.977778H1.64927C1.27893 0.977778 0.977778 1.27893 0.977778 1.64927V20.3507C0.977778 20.7211 1.27893 21.0222 1.64927 21.0222H10.7189V13.859H8.46804C8.19818 13.859 7.97916 13.64 7.97916 13.3701V10.1975C7.97916 9.92762 8.19818 9.7086 8.46804 9.7086H10.7189V7.85767C10.7189 4.96931 12.4698 3.17509 15.2883 3.17509C16.4526 3.17509 17.4836 3.26211 17.8007 3.3044C18.0437 3.33667 18.225 3.54396 18.225 3.78889V6.6264C18.225 6.89627 18.0063 7.11529 17.7364 7.11529L16.0563 7.11602C15.0798 7.11602 14.9727 7.45409 14.9727 8.17178V9.70836H17.6257C17.7662 9.70836 17.8999 9.76898 17.9928 9.87433C18.0857 9.97993 18.1285 10.1202 18.1104 10.2598L17.7012 13.4325C17.6697 13.6762 17.4621 13.8588 17.2165 13.8588H14.9727L14.973 21.0222Z" fill="white"/>
</svg>
