<svg width="40" height="40" viewBox="0 0 40 40" fill="none" xmlns="http://www.w3.org/2000/svg">
<rect width="40" height="40" rx="2" fill="#0E2341"/>
<path d="M19.9997 30.9089C13.9843 30.9089 9.09082 26.0149 9.09082 19.9999C9.09082 13.9844 13.9848 9.09076 19.9997 9.09076C26.015 9.09076 30.909 13.9848 30.909 19.9999C30.909 26.0149 26.015 30.9089 19.9997 30.9089ZM19.9997 11.2957C15.2001 11.2957 11.2957 15.2002 11.2957 19.9999C11.2957 24.7991 15.2001 28.704 19.9997 28.704C24.7997 28.704 28.7041 24.7995 28.7041 19.9999C28.7041 15.2002 24.7997 11.2957 19.9997 11.2957Z" fill="white"/>
<path d="M31.242 10C32.4972 10 33.5147 8.98251 33.5147 7.72732C33.5147 6.47212 32.4972 5.45459 31.242 5.45459C29.9868 5.45459 28.9692 6.47212 28.9692 7.72732C28.9692 8.98251 29.9868 10 31.242 10Z" fill="white"/>
</svg>
