<svg width="22" height="22" viewBox="0 0 22 22" fill="none" xmlns="http://www.w3.org/2000/svg">
<path d="M15.3215 22H6.67871C2.99591 22 0 19.0041 0 15.3215V6.67871C0 2.99591 2.99591 0 6.67871 0H15.3215C19.0041 0 22 2.99591 22 6.67871V15.3215C22 19.0041 19.0041 22 15.3215 22ZM6.67871 1.22222C3.67009 1.22222 1.22222 3.67009 1.22222 6.67871V15.3215C1.22222 18.3299 3.67009 20.7778 6.67871 20.7778H15.3215C18.3299 20.7778 20.7778 18.3299 20.7778 15.3215V6.67871C20.7778 3.67009 18.3299 1.22222 15.3215 1.22222H6.67871Z" fill="white"/>
<path d="M11.0639 17.1109C7.72942 17.1109 5.01682 14.398 5.01682 11.0638C5.01682 7.72932 7.72967 5.01672 11.0639 5.01672C14.3984 5.01672 17.1112 7.72957 17.1112 11.0638C17.1112 14.398 14.3984 17.1109 11.0639 17.1109ZM11.0639 6.23895C8.40336 6.23895 6.23904 8.40326 6.23904 11.0638C6.23904 13.7241 8.40336 15.8886 11.0639 15.8886C13.7247 15.8886 15.889 13.7243 15.889 11.0638C15.889 8.40326 13.7247 6.23895 11.0639 6.23895Z" fill="white"/>
<path d="M17.1758 5.20178C17.8528 5.20178 18.4017 4.65293 18.4017 3.97589C18.4017 3.29885 17.8528 2.75 17.1758 2.75C16.4988 2.75 15.9499 3.29885 15.9499 3.97589C15.9499 4.65293 16.4988 5.20178 17.1758 5.20178Z" fill="white"/>
</svg>
