<svg width="286" height="16" viewBox="0 0 286 16" fill="none" xmlns="http://www.w3.org/2000/svg">
<path d="M0 8C-3.86258e-07 12.4183 3.58172 16 8 16C12.4183 16 16 12.4183 16 8C16 3.58172 12.4183 3.86258e-07 8 0C3.58172 -3.86258e-07 3.86258e-07 3.58172 0 8ZM270 8.00002C270 12.4183 273.582 16 278 16C282.418 16 286 12.4183 286 8.00002C286 3.58175 282.418 2.39904e-05 278 2.36042e-05C273.582 2.32179e-05 270 3.58174 270 8.00002ZM8 9.5L10.9348 9.5L10.9348 6.5L8 6.5L8 9.5ZM16.8043 9.5L22.6739 9.5L22.6739 6.5L16.8043 6.5L16.8043 9.5ZM28.5435 9.5L34.413 9.5L34.413 6.5L28.5435 6.5L28.5435 9.5ZM40.2826 9.5L46.1522 9.5L46.1522 6.5L40.2826 6.5L40.2826 9.5ZM52.0217 9.5L57.8913 9.5L57.8913 6.5L52.0217 6.5L52.0217 9.5ZM63.7609 9.5L69.6304 9.50001L69.6304 6.50001L63.7609 6.5L63.7609 9.5ZM75.5 9.50001L81.3696 9.50001L81.3696 6.50001L75.5 6.50001L75.5 9.50001ZM87.2391 9.50001L93.1087 9.50001L93.1087 6.50001L87.2391 6.50001L87.2391 9.50001ZM98.9783 9.50001L104.848 9.50001L104.848 6.50001L98.9783 6.50001L98.9783 9.50001ZM110.717 9.50001L116.587 9.50001L116.587 6.50001L110.717 6.50001L110.717 9.50001ZM122.457 9.50001L128.326 9.50001L128.326 6.50001L122.457 6.50001L122.457 9.50001ZM134.196 9.50001L140.065 9.50001L140.065 6.50001L134.196 6.50001L134.196 9.50001ZM145.935 9.50001L151.804 9.50001L151.804 6.50001L145.935 6.50001L145.935 9.50001ZM157.674 9.50001L163.544 9.50001L163.544 6.50001L157.674 6.50001L157.674 9.50001ZM169.413 9.50001L175.283 9.50001L175.283 6.50001L169.413 6.50001L169.413 9.50001ZM181.152 9.50002L187.022 9.50002L187.022 6.50002L181.152 6.50002L181.152 9.50002ZM192.891 9.50002L198.761 9.50002L198.761 6.50002L192.891 6.50002L192.891 9.50002ZM204.63 9.50002L210.5 9.50002L210.5 6.50002L204.63 6.50002L204.63 9.50002ZM216.37 9.50002L222.239 9.50002L222.239 6.50002L216.37 6.50002L216.37 9.50002ZM228.109 9.50002L233.978 9.50002L233.978 6.50002L228.109 6.50002L228.109 9.50002ZM239.848 9.50002L245.717 9.50002L245.717 6.50002L239.848 6.50002L239.848 9.50002ZM251.587 9.50002L257.457 9.50002L257.457 6.50002L251.587 6.50002L251.587 9.50002ZM263.326 9.50002L269.196 9.50002L269.196 6.50002L263.326 6.50002L263.326 9.50002ZM275.065 9.50002L278 9.50002L278 6.50002L275.065 6.50002L275.065 9.50002Z" fill="#D7BB83"/>
</svg>
