<svg width="116" height="50" viewBox="0 0 116 50" fill="none" xmlns="http://www.w3.org/2000/svg">
<g clip-path="url(#clip0_600_35)">
<path d="M40.8881 49.51C40.7 49.6528 40.1855 49.9776 39.5133 49.9776C38.216 49.9776 36.833 49.0368 36.833 47.1049C36.833 45.173 37.9975 44.0419 39.5133 44.0419C40.7083 44.0419 41.6072 44.809 41.6072 44.809L41.5132 46.2426H41.3721C41.2864 44.8986 40.5506 44.1623 39.505 44.1623C38.1524 44.1623 37.7928 45.999 37.7928 47.0741C37.7928 47.9449 38.3239 50.5152 40.3874 49.6696C40.6917 49.552 40.7166 49.3056 40.7166 49.1712V48.1437C40.7166 47.8665 40.6059 47.7153 40.451 47.6369C40.3182 47.5893 40.1938 47.5725 39.9587 47.5669V47.4073L40.5617 47.4297H41.4523C41.6543 47.4297 41.8341 47.4213 41.9613 47.4073V47.5669C41.8838 47.5669 41.8506 47.5837 41.7898 47.5977C41.704 47.6369 41.6266 47.7321 41.6266 47.9225V48.8324L40.8908 49.5128L40.8881 49.51Z" fill="#0E2341"/>
<path d="M50.4643 49.2637C50.6358 49.7621 50.9871 49.7929 51.2609 49.7929V49.8965H49.9636C49.0868 49.8965 49.3302 47.1834 48.0716 47.1442H47.7591V49.2161C47.7591 49.8265 48.2984 49.7929 48.517 49.7929V49.8965H46.2571V49.7929C46.4535 49.7929 46.9458 49.8153 46.9458 49.2245V44.7923C46.9458 44.1987 46.4147 44.2155 46.2654 44.2155V44.1119H48.4395C49.1034 44.1119 50.4809 44.2547 50.4809 45.6155C50.4809 46.447 49.8308 46.8418 49.4021 47.0014C49.1919 47.0798 49.0038 47.119 48.7604 47.1358C49.77 47.1358 50.1047 48.2753 50.4643 49.2637ZM47.7591 47.0406H48.4478C48.5336 47.0406 49.5349 46.9706 49.5349 45.6155C49.5349 44.8175 49.308 44.2155 48.4395 44.2155C48.3067 44.2155 47.7591 44.2155 47.7591 44.7839V47.0378V47.0406Z" fill="#0E2341"/>
<path d="M60.5464 46.9286C60.5464 48.5665 59.3127 49.8964 57.8965 49.8964C56.4802 49.8964 55.2466 48.5665 55.2466 46.9286C55.2466 45.2906 56.483 43.9607 57.8965 43.9607C59.3099 43.9607 60.5464 45.2906 60.5464 46.9286ZM59.5616 46.8894C59.5616 45.3382 58.9116 44.0643 57.8965 44.0643C56.8813 44.0643 56.2313 45.3382 56.2313 46.8894C56.2313 48.4405 56.8869 49.7928 57.8965 49.7928C58.9061 49.7928 59.5616 48.4405 59.5616 46.8894Z" fill="#0E2341"/>
<path d="M70.0589 44.1119V44.2239C69.7159 44.2239 69.1129 44.4843 69.1129 45.3719V47.4998C69.1212 49.3505 68.6123 50.0001 67.2458 50.0001C65.5171 50.0001 65.293 48.7093 65.293 47.7994V44.8399C65.293 44.3583 65.0192 44.2239 64.6125 44.2239V44.1119H66.6843V44.2239C66.2611 44.2239 66.0979 44.3499 66.0979 44.8399C66.0979 45.1955 66.0758 48.0905 66.145 48.4629C66.2086 48.9053 66.3635 49.3421 66.7701 49.5549C66.9416 49.6417 67.1131 49.6725 67.3012 49.6725C69.03 49.6725 69.0134 48.1773 69.0134 47.497V45.3607C69.0134 44.4591 68.4353 44.2211 68.0674 44.2211V44.1091H70.0617L70.0589 44.1119Z" fill="#0E2341"/>
<path d="M75.8511 47.5558V49.2161C75.8511 49.7929 76.3517 49.7929 76.6256 49.7929V49.8965H74.3574V49.7929C74.5925 49.7929 75.0545 49.8097 75.0545 49.2245V44.7923C75.0545 44.2295 74.5925 44.2239 74.3657 44.2239V44.1119H76.6726C77.3226 44.1119 78.6199 44.3583 78.6199 45.7891C78.6199 47.539 76.8994 47.553 76.5398 47.553H75.8511V47.5558ZM75.8511 47.4606H76.5481C76.869 47.4606 77.6739 47.1666 77.6739 45.8227C77.6739 45.0247 77.6518 44.2155 76.5398 44.2155C76.4237 44.2155 76.3047 44.2155 76.1969 44.2547C76.0254 44.3107 75.9064 44.4927 75.8677 44.6663C75.8456 44.7783 75.8511 44.8875 75.8511 44.9911V47.4606Z" fill="#0E2341"/>
<path d="M7.82243 36.5971V36.8547H0V36.5971C0.677686 36.5971 2.38158 36.6559 2.38158 35.1636V24.0061C2.38158 22.511 0.542149 22.553 0.0276606 22.553V22.2926H5.19744V35.144C5.19744 36.6783 7.06453 36.5971 7.82243 36.5971ZM19.675 36.5775V36.8575H14.0184C12.3145 35.3036 7.63157 29.6646 7.63157 29.6646C8.60523 29.5863 11.3381 29.0683 11.3381 26.0584C11.3381 23.5693 9.19993 22.6902 8.1184 22.413V22.2926C10.9868 22.371 14.6131 23.029 14.6131 26.0584C14.6131 28.6875 10.9066 29.5443 10.9066 29.5443C10.9066 29.5443 15.3461 35.6816 18.7539 36.4571C18.9973 36.5159 19.6197 36.5775 19.675 36.5775Z" fill="#0E2341"/>
<path d="M26.9802 22.2926H32.1223V36.8575H26.9802V36.5999C27.9539 36.5999 29.3618 36.3199 29.3618 35.1664V23.9893C29.3618 22.595 27.5473 22.5558 26.9802 22.5558V22.2954V22.2926ZM37.5355 26.8144V32.1929H37.0764C37.0764 30.5998 35.2369 29.883 34.3158 29.6227V29.3847C35.2369 29.1047 37.0764 28.3879 37.0764 26.8144H37.5355ZM36.454 22.2926H41.1369L41.4882 25.9576H41.1093C40.7303 23.6673 38.1855 22.8106 36.454 22.4914V22.2926ZM42.0553 32.7725L41.6763 36.8575H36.454V36.6587C38.3487 36.3003 41.2172 35.3428 41.6238 32.7725H42.058H42.0553Z" fill="#0E2341"/>
<path d="M56.4056 35.1608C56.4056 36.3955 57.3792 36.5943 58.4635 36.5943V36.8519H51.5898V36.5943C52.6465 36.5943 53.6478 36.3955 53.6478 35.1608V23.9837C53.6478 22.749 52.6465 22.5502 51.5898 22.5502V22.2898H58.4635V22.5502C57.382 22.5502 56.4056 22.749 56.4056 23.9837V35.1608Z" fill="#0E2341"/>
<path d="M69.5473 22.2926L78.2355 33.8476V36.8547H77.3144L67.8157 24.3225C67.8157 24.3225 66.2723 22.6286 64.5684 22.6286V22.2898H69.5473V22.2926ZM79.1538 22.2926L88.0578 33.8476V36.8547H87.1367L77.4195 24.3225C77.4195 24.3225 75.876 22.6286 74.1721 22.6286V22.2898H79.1511L79.1538 22.2926ZM91.5209 22.2926V22.5726C90.4919 22.5726 89.6815 22.8106 89.2748 23.3285C88.6801 24.1041 88.3814 25.5208 88.2182 26.7164H87.9195C87.7839 25.5208 87.4852 24.1069 86.8905 23.3285C86.5116 22.791 85.6458 22.5726 84.5642 22.5726V22.2926H91.5181H91.5209Z" fill="#0E2341"/>
<path d="M102.92 36.5971V36.8546H96.1816V36.5971C97.9132 36.5971 99.2658 34.7044 100.295 32.9712H100.511C99.9158 34.626 99.725 36.5971 102.92 36.5971ZM115.45 36.5971V36.8546H108.604V36.5971C110.04 36.5971 110.715 35.8803 110.228 34.8051L104.654 24.3644C104.167 23.6673 103.382 23.6085 103.382 23.6085C105.412 23.2893 106.549 22.2729 106.549 22.2729C106.549 22.2729 113.151 34.6848 113.207 34.7632C114.153 36.3563 114.396 36.5971 115.453 36.5971H115.45Z" fill="#0E2341"/>
<path d="M42.8657 14.7049C45.593 14.2065 48.7906 7.52884 48.7906 7.52884C48.7906 7.52884 45.9913 6.63848 45.9913 3.90861C45.9913 0.764363 48.7297 0.0811961 50.8956 0V0.123194C50.0796 0.41158 48.4642 1.32154 48.4642 3.90861C48.4642 7.03046 50.5277 7.56804 51.2634 7.65203C51.2634 7.65203 48.1488 13.179 47.0618 15.1193H42.1714V14.8309C42.2129 14.8309 42.6831 14.7693 42.8657 14.7077V14.7049Z" fill="#0E2341"/>
<path d="M73.2813 0V0.352783C71.9951 0.352783 70.8306 2.1111 70.8306 2.1111L63.6582 15.1193H62.9639V11.9974L69.5195 0H73.2786H73.2813ZM66.0287 0V0.352783C64.7425 0.352783 63.578 2.1111 63.578 2.1111L56.2424 15.1193H55.5481V11.9974L62.2669 0H66.0259H66.0287ZM58.1814 0V0.288386C57.3654 0.288386 56.7098 0.515175 56.4249 1.07515C55.9768 1.88151 55.75 3.35144 55.6477 4.59178H55.4236C55.3019 3.35144 55.0751 1.88151 54.627 1.07515C54.32 0.537574 53.7087 0.288386 52.9314 0.288386V0H58.1814Z" fill="#0E2341"/>
</g>
<defs>
<clipPath id="clip0_600_35">
<rect width="115.45" height="50" fill="white"/>
</clipPath>
</defs>
</svg>
