<svg width="130" height="57" viewBox="0 0 130 57" fill="none" xmlns="http://www.w3.org/2000/svg">
<g clip-path="url(#clip0_744_54)">
<path d="M8.80828 41.09V41.3792H0V41.09C0.763094 41.09 2.68173 41.156 2.68173 39.4805V26.9532C2.68173 25.2745 0.610475 25.3217 0.0311467 25.3217V25.0293H5.85246V39.4585C5.85246 41.1812 7.95486 41.09 8.80828 41.09ZM22.1546 41.068V41.3824H15.7851C13.8665 39.6377 8.59337 33.3064 8.59337 33.3064C9.68973 33.2184 12.767 32.6368 12.767 29.2575C12.767 26.4628 10.3594 25.4757 9.14155 25.1645V25.0293C12.3715 25.1173 16.4548 25.8561 16.4548 29.2575C16.4548 32.2093 12.2811 33.1712 12.2811 33.1712C12.2811 33.1712 17.2802 40.062 21.1174 40.9328C21.3915 40.9988 22.0923 41.068 22.1546 41.068Z" fill="white"/>
<path d="M30.3804 25.0293H36.1705V41.3824H30.3804V41.0932C31.4767 41.0932 33.0621 40.7788 33.0621 39.4836V26.9343C33.0621 25.3688 31.0189 25.3248 30.3804 25.3248V25.0324V25.0293ZM42.2659 30.1062V36.1451H41.7489C41.7489 34.3564 39.6777 33.5516 38.6405 33.2593V32.9921C39.6777 32.6777 41.7489 31.8729 41.7489 30.1062H42.2659ZM41.0481 25.0293H46.3212L46.7168 29.1443H46.2901C45.8634 26.5728 42.9979 25.6109 41.0481 25.2525V25.0293ZM47.3553 36.7958L46.9286 41.3824H41.0481V41.1592C43.1817 40.7568 46.4116 39.6817 46.8694 36.7958H47.3584H47.3553Z" fill="white"/>
<path d="M63.5142 39.4775C63.5142 40.8639 64.6106 41.0871 65.8315 41.0871V41.3763H58.0916V41.0871C59.2814 41.0871 60.4089 40.8639 60.4089 39.4775V26.9283C60.4089 25.5419 59.2814 25.3187 58.0916 25.3187V25.0264H65.8315V25.3187C64.6137 25.3187 63.5142 25.5419 63.5142 26.9283V39.4775Z" fill="white"/>
<path d="M78.312 25.0295L88.0951 38.0032V41.3794H87.058L76.3622 27.3086C76.3622 27.3086 74.6242 25.4067 72.7056 25.4067V25.0264H78.312V25.0295ZM89.1292 25.0295L99.1553 38.0032V41.3794H98.1181L87.1763 27.3086C87.1763 27.3086 85.4383 25.4067 83.5197 25.4067V25.0264H89.1261L89.1292 25.0295ZM103.055 25.0295V25.3439C101.896 25.3439 100.984 25.6111 100.526 26.1926C99.8561 27.0634 99.5197 28.6541 99.336 29.9964H98.9996C98.847 28.6541 98.5106 27.0666 97.8409 26.1926C97.4142 25.5891 96.4393 25.3439 95.2215 25.3439V25.0295H103.052H103.055Z" fill="white"/>
<path d="M115.891 41.09V41.3793H108.303V41.09C110.253 41.09 111.776 38.965 112.935 37.0191H113.178C112.508 38.8769 112.293 41.09 115.891 41.09ZM130 41.09V41.3793H122.291V41.09C123.908 41.09 124.668 40.2853 124.12 39.0781L117.843 27.3556C117.295 26.5728 116.411 26.5068 116.411 26.5068C118.697 26.1485 119.977 25.0073 119.977 25.0073C119.977 25.0073 127.412 38.943 127.474 39.031C128.539 40.8197 128.813 41.09 130.003 41.09H130Z" fill="white"/>
<path d="M48.2681 16.5102C51.3392 15.9507 54.9397 8.45317 54.9397 8.45317C54.9397 8.45317 51.7877 7.4535 51.7877 4.38848C51.7877 0.858206 54.8712 0.0911647 57.31 0V0.138319C56.3912 0.462111 54.5722 1.48378 54.5722 4.38848C54.5722 7.89361 56.8957 8.49718 57.7242 8.59149C57.7242 8.59149 54.2171 14.797 52.9931 16.9755H47.4863V16.6517C47.533 16.6517 48.0625 16.5825 48.2681 16.5134V16.5102Z" fill="white"/>
<path d="M82.5169 0V0.396095C81.0686 0.396095 79.7573 2.37028 79.7573 2.37028L71.681 16.9755H70.8992V13.4704L78.281 0H82.5138H82.5169ZM74.3502 0V0.396095C72.9019 0.396095 71.5907 2.37028 71.5907 2.37028L63.3306 16.9755H62.5488V13.4704L70.1143 0H74.3471H74.3502ZM65.5139 0V0.323792C64.5951 0.323792 63.8569 0.578424 63.5361 1.20715C63.0315 2.11251 62.7761 3.7629 62.6609 5.15552H62.4086C62.2716 3.7629 62.0162 2.11251 61.5116 1.20715C61.1659 0.603573 60.4775 0.323792 59.6023 0.323792V0H65.5139Z" fill="white"/>
<path d="M17.9872 55.3499C17.9872 55.9252 18.3267 56.0164 18.6849 56.0164V56.1358H16.3613V56.0164C16.7195 56.0164 17.0497 55.922 17.0497 55.3499V50.1472C17.0497 49.572 16.7195 49.4808 16.3613 49.4808V49.3613H18.6849V49.4808C18.3267 49.4808 17.9872 49.572 17.9872 50.1472V55.3499Z" fill="white"/>
<path d="M29.0318 49.3613V49.4902C28.6175 49.4902 27.9105 49.7951 27.9105 50.8451V56.139H27.599L23.6029 50.5465V54.6552C23.6029 55.702 24.3099 56.0101 24.7242 56.0101V56.139H22.3633V56.0101C22.8056 56.0101 23.4846 55.7303 23.4846 54.6646V50.3893L23.2634 50.0749C23.2634 50.0749 22.8772 49.5185 22.3913 49.5185V49.3613H24.0078L27.8015 54.564V50.8357C27.8015 49.77 27.1038 49.4902 26.6615 49.4902V49.3613H29.0318Z" fill="white"/>
<path d="M39.2572 49.3613V49.4808C38.5501 49.4808 38.2729 50.2227 38.0549 50.7319L35.8404 56.4345L33.4234 50.2038C33.4234 50.2038 33.2023 49.5091 32.707 49.5091V49.3613H35.0306V49.5091C34.3142 49.5091 34.3516 50.0183 34.526 50.4459L36.2982 54.9255L37.7684 51.106C38.2823 49.8172 37.4008 49.4839 36.9586 49.4839V49.3645H39.2541L39.2572 49.3613Z" fill="white"/>
<path d="M47.9223 56.1387H42.9326V56.0193C43.2721 56.0193 43.7518 55.8904 43.7518 55.3528V50.1502C43.7518 49.4994 43.1257 49.4837 42.9326 49.4837V49.3643H47.7479L47.8663 51.0712H47.7292C47.5454 50.1062 46.8384 49.4869 45.8261 49.4869H45.3932C44.9167 49.4869 44.7049 49.7572 44.7049 50.1282V52.6682H45.1191C45.9102 52.6399 46.3681 52.0835 46.3681 51.4736H46.5145V53.9759H46.3681C46.3681 53.3629 45.8635 52.8254 45.1004 52.7971H44.7049V55.3843C44.7049 55.9973 45.3745 56.0256 45.3932 56.0256H45.9912C47.2589 56.0256 47.8289 55.1737 47.9036 54.2463H48.05L47.9223 56.1482V56.1387Z" fill="white"/>
<path d="M55.3632 55.9061C53.9024 56.7863 51.8 55.8212 51.8 55.8212L51.9464 54.1708H52.0741C52.1395 55.8024 53.6719 56.3211 54.3602 56.0916C55.086 55.8401 55.3164 54.7555 54.9022 54.1363C54.435 53.4415 53.5691 53.014 52.8527 52.6147C52.1737 52.2249 51.6941 51.4925 51.7221 50.7223C51.7408 50.1376 52.2173 49.6095 52.7686 49.4051C54.1453 48.9053 55.7556 49.6912 55.7556 49.6912L55.6186 51.3416H55.4909C55.3725 49.5812 53.6719 49.1442 53.0116 49.4868C52.588 49.7195 52.479 50.3388 52.616 50.7946C52.7718 51.3416 53.2514 51.6937 53.7373 51.9546C54.2886 52.2595 54.8306 52.5487 55.2915 52.992C56.2664 53.9288 56.173 55.422 55.3663 55.903L55.3632 55.9061Z" fill="white"/>
<path d="M65.4422 51.3732H65.2491C65.1494 50.5213 64.6978 49.4808 63.5672 49.4808H63.0346V55.3405C63.0346 55.9881 63.5485 56.0069 63.9908 56.0069V56.1358H61.1346V56.0069C61.5862 56.0069 62.0815 55.9692 62.0815 55.3499V49.4808H61.4928C60.3622 49.4808 60.004 50.5087 59.8763 51.3732H59.6738L59.8109 49.3613H65.3051L65.4422 51.3732Z" fill="white"/>
<path d="M76.247 50.1661V55.3216C76.247 56.0163 76.817 56.0069 77.1097 56.0069V56.1358H74.4623V56.0069C74.7737 56.0069 75.2721 55.9786 75.2721 55.3405V50.0749L72.9859 56.139H72.8676L70.3696 49.8989V54.6552C70.3696 55.702 71.0766 56.0101 71.4815 56.0101V56.139H69.1206V56.0101C69.5629 56.0101 70.2512 55.7303 70.2512 54.6646V50.1221C70.2512 49.5091 69.5629 49.5185 69.4072 49.5185V49.3613H71.2542L73.422 54.6174L75.3967 49.3613H76.9851V49.4902C76.2875 49.4902 76.2501 49.8989 76.2501 50.1661H76.247Z" fill="white"/>
<path d="M85.7749 56.1387H80.7852V56.0193C81.1247 56.0193 81.6043 55.8904 81.6043 55.3528V50.1502C81.6043 49.4994 80.9783 49.4837 80.7852 49.4837V49.3643H85.6004L85.7188 51.0712H85.5817C85.398 50.1062 84.691 49.4869 83.6787 49.4869H83.2457C82.7692 49.4869 82.5574 49.7572 82.5574 50.1282V52.6682H82.9717C83.7628 52.6399 84.2206 52.0835 84.2206 51.4736H84.367V53.9759H84.2206C84.2206 53.3629 83.7161 52.8254 82.953 52.7971H82.5574V55.3843C82.5574 55.9973 83.2271 56.0256 83.2457 56.0256H83.8438C85.1114 56.0256 85.6814 55.1737 85.7562 54.2463H85.9026L85.7749 56.1482V56.1387Z" fill="white"/>
<path d="M96.2493 49.3613V49.4902C95.8351 49.4902 95.128 49.7951 95.128 50.8451V56.139H94.8166L90.8205 50.5465V54.6552C90.8205 55.702 91.5275 56.0101 91.9417 56.0101V56.139H89.5808V56.0101C90.0231 56.0101 90.7021 55.7303 90.7021 54.6646V50.3893L90.481 50.0749C90.481 50.0749 90.0947 49.5185 89.6089 49.5185V49.3613H91.2254L95.019 54.564V50.8357C95.019 49.77 94.3213 49.4902 93.8791 49.4902V49.3613H96.2493Z" fill="white"/>
<path d="M105.693 51.3732H105.5C105.4 50.5213 104.949 49.4808 103.818 49.4808H103.286V55.3405C103.286 55.9881 103.799 56.0069 104.242 56.0069V56.1358H101.386V56.0069C101.837 56.0069 102.332 55.9692 102.332 55.3499V49.4808H101.744C100.613 49.4808 100.255 50.5087 100.127 51.3732H99.9248L100.062 49.3613H105.556L105.693 51.3732Z" fill="white"/>
<path d="M113.006 55.9061C111.546 56.7863 109.443 55.8212 109.443 55.8212L109.59 54.1708H109.717C109.783 55.8024 111.315 56.3211 112.004 56.0916C112.729 55.8401 112.96 54.7555 112.545 54.1363C112.078 53.4415 111.212 53.014 110.496 52.6147C109.817 52.2249 109.337 51.4925 109.365 50.7223C109.384 50.1376 109.861 49.6095 110.412 49.4051C111.789 48.9053 113.399 49.6912 113.399 49.6912L113.262 51.3416H113.134C113.016 49.5812 111.315 49.1442 110.655 49.4868C110.231 49.7195 110.122 50.3388 110.259 50.7946C110.415 51.3416 110.895 51.6937 111.381 51.9546C111.932 52.2595 112.474 52.5487 112.935 52.992C113.91 53.9288 113.816 55.422 113.01 55.903L113.006 55.9061Z" fill="white"/>
</g>
<defs>
<clipPath id="clip0_744_54">
<rect width="130" height="56.4341" fill="white"/>
</clipPath>
</defs>
</svg>
