<svg width="418" height="180" viewBox="0 0 418 180" fill="none" xmlns="http://www.w3.org/2000/svg">
<path d="M28.5808 131.37V132.29H0.300781V131.37C2.75078 131.37 8.9108 131.58 8.9108 126.25V86.4C8.9108 81.06 2.26079 81.21 0.400787 81.21V80.28H19.0908V126.18C19.0908 131.66 25.8408 131.37 28.5808 131.37ZM71.4308 131.3V132.3H50.9808C44.8208 126.75 27.8908 106.61 27.8908 106.61C31.4108 106.33 41.2908 104.48 41.2908 93.73C41.2908 84.84 33.5608 81.7 29.6508 80.71V80.28C40.0208 80.56 53.1308 82.91 53.1308 93.73C53.1308 103.12 39.7308 106.18 39.7308 106.18C39.7308 106.18 55.7808 128.1 68.1008 130.87C68.9808 131.08 71.2308 131.3 71.4308 131.3Z" fill="white"/>
<path d="M97.8516 80.28H116.442V132.3H97.8516V131.38C101.372 131.38 106.462 130.38 106.462 126.26V86.34C106.462 81.36 99.9016 81.22 97.8516 81.22V80.29V80.28ZM136.012 96.43V115.64H134.352C134.352 109.95 127.702 107.39 124.372 106.46V105.61C127.702 104.61 134.352 102.05 134.352 96.43H136.012ZM132.102 80.28H149.032L150.302 93.37H148.932C147.562 85.19 138.362 82.13 132.102 80.99V80.28ZM152.352 117.71L150.982 132.3H132.102V131.59C138.952 130.31 149.322 126.89 150.792 117.71H152.362H152.352Z" fill="white"/>
<path d="M204.23 126.25C204.23 130.66 207.75 131.37 211.67 131.37V132.29H186.82V131.37C190.64 131.37 194.26 130.66 194.26 126.25V86.33C194.26 81.92 190.64 81.21 186.82 81.21V80.28H211.67V81.21C207.76 81.21 204.23 81.92 204.23 86.33V126.25Z" fill="white"/>
<path d="M251.74 80.28L283.15 121.55V132.29H279.82L245.48 87.53C245.48 87.53 239.9 81.48 233.74 81.48V80.27H251.74V80.28ZM286.47 80.28L318.66 121.55V132.29H315.33L280.2 87.53C280.2 87.53 274.62 81.48 268.46 81.48V80.27H286.46L286.47 80.28ZM331.18 80.28V81.28C327.46 81.28 324.53 82.13 323.06 83.98C320.91 86.75 319.83 91.81 319.24 96.08H318.16C317.67 91.81 316.59 86.76 314.44 83.98C313.07 82.06 309.94 81.28 306.03 81.28V80.28H331.17H331.18Z" fill="white"/>
<path d="M372.391 131.37V132.29H348.031V131.37C354.291 131.37 359.181 124.61 362.901 118.42H363.681C361.531 124.33 360.841 131.37 372.391 131.37ZM417.691 131.37V132.29H392.941V131.37C398.131 131.37 400.571 128.81 398.811 124.97L378.661 87.6799C376.901 85.1899 374.061 84.9799 374.061 84.9799C381.401 83.8399 385.511 80.21 385.511 80.21C385.511 80.21 409.381 124.54 409.581 124.82C413.001 130.51 413.881 131.37 417.701 131.37H417.691Z" fill="white"/>
<path d="M155.281 53.1899C165.141 51.4099 176.701 27.5599 176.701 27.5599C176.701 27.5599 166.581 24.3799 166.581 14.6299C166.581 3.39994 176.481 0.959922 184.311 0.669922V1.10992C181.361 2.13992 175.521 5.38994 175.521 14.6299C175.521 25.7799 182.981 27.6999 185.641 27.9999C185.641 27.9999 174.381 47.7399 170.451 54.6699H152.771V53.64C152.921 53.64 154.621 53.42 155.281 53.2V53.1899Z" fill="white"/>
<path d="M265.232 0.659912V1.91992C260.582 1.91992 256.372 8.19995 256.372 8.19995L230.442 54.6599H227.932V43.5099L251.642 0.669922H265.232V0.659912ZM239.012 0.659912V1.91992C234.362 1.91992 230.152 8.19995 230.152 8.19995L203.632 54.6599H201.122V43.5099L225.422 0.669922H239.012V0.659912ZM210.642 0.659912V1.68994C207.692 1.68994 205.322 2.49994 204.292 4.49994C202.672 7.37994 201.852 12.6299 201.482 17.0599H200.672C200.232 12.6299 199.412 7.37994 197.792 4.49994C196.682 2.57994 194.472 1.68994 191.662 1.68994V0.659912H210.642Z" fill="white"/>
<path d="M148.131 177.49C147.451 178 145.591 179.16 143.161 179.16C138.471 179.16 133.471 175.8 133.471 168.9C133.471 162 137.681 157.96 143.161 157.96C147.481 157.96 150.731 160.7 150.731 160.7L150.391 165.82H149.881C149.571 161.02 146.911 158.39 143.131 158.39C138.241 158.39 136.941 164.95 136.941 168.79C136.941 171.9 138.861 181.08 146.321 178.06C147.421 177.64 147.511 176.76 147.511 176.28V172.61C147.511 171.62 147.111 171.08 146.551 170.8C146.071 170.63 145.621 170.57 144.771 170.55V169.98L146.951 170.06H150.171C150.901 170.06 151.551 170.03 152.011 169.98V170.55C151.731 170.55 151.611 170.61 151.391 170.66C151.081 170.8 150.801 171.14 150.801 171.82V175.07L148.141 177.5L148.131 177.49Z" fill="white"/>
<path d="M182.751 176.61C183.371 178.39 184.641 178.5 185.631 178.5V178.87H180.941C177.771 178.87 178.651 169.18 174.101 169.04H172.971V176.44C172.971 178.62 174.921 178.5 175.711 178.5V178.87H167.541V178.5C168.251 178.5 170.031 178.58 170.031 176.47V160.64C170.031 158.52 168.111 158.58 167.571 158.58V158.21H175.431C177.831 158.21 182.811 158.72 182.811 163.58C182.811 166.55 180.461 167.96 178.911 168.53C178.151 168.81 177.471 168.95 176.591 169.01C180.241 169.01 181.451 173.08 182.751 176.61ZM172.971 168.67H175.461C175.771 168.67 179.391 168.42 179.391 163.58C179.391 160.73 178.571 158.58 175.431 158.58C174.951 158.58 172.971 158.58 172.971 160.61V168.66V168.67Z" fill="white"/>
<path d="M219.201 168.28C219.201 174.13 214.741 178.88 209.621 178.88C204.501 178.88 200.041 174.13 200.041 168.28C200.041 162.43 204.511 157.68 209.621 157.68C214.731 157.68 219.201 162.43 219.201 168.28ZM215.641 168.14C215.641 162.6 213.291 158.05 209.621 158.05C205.951 158.05 203.601 162.6 203.601 168.14C203.601 173.68 205.971 178.51 209.621 178.51C213.271 178.51 215.641 173.68 215.641 168.14Z" fill="white"/>
<path d="M253.59 158.22V158.62C252.35 158.62 250.17 159.55 250.17 162.72V170.32C250.2 176.93 248.36 179.25 243.42 179.25C237.17 179.25 236.36 174.64 236.36 171.39V160.82C236.36 159.1 235.37 158.62 233.9 158.62V158.22H241.39V158.62C239.86 158.62 239.27 159.07 239.27 160.82C239.27 162.09 239.19 172.43 239.44 173.76C239.67 175.34 240.23 176.9 241.7 177.66C242.32 177.97 242.94 178.08 243.62 178.08C249.87 178.08 249.81 172.74 249.81 170.31V162.68C249.81 159.46 247.72 158.61 246.39 158.61V158.21H253.6L253.59 158.22Z" fill="white"/>
<path d="M274.531 170.51V176.44C274.531 178.5 276.341 178.5 277.331 178.5V178.87H269.131V178.5C269.981 178.5 271.651 178.56 271.651 176.47V160.64C271.651 158.63 269.981 158.61 269.161 158.61V158.21H277.501C279.851 158.21 284.541 159.09 284.541 164.2C284.541 170.45 278.321 170.5 277.021 170.5H274.531V170.51ZM274.531 170.17H277.051C278.211 170.17 281.121 169.12 281.121 164.32C281.121 161.47 281.041 158.58 277.021 158.58C276.601 158.58 276.171 158.58 275.781 158.72C275.161 158.92 274.731 159.57 274.591 160.19C274.511 160.59 274.531 160.98 274.531 161.35V170.17Z" fill="white"/>
</svg>
