<svg width="15" height="16" viewBox="0 0 15 16" fill="none" xmlns="http://www.w3.org/2000/svg">
<path d="M10.0006 10.6616L11.2923 9.36925C11.4663 9.19736 11.6864 9.07969 11.9259 9.03053C12.1654 8.98137 12.414 9.00284 12.6416 9.09233L14.2158 9.72118C14.4457 9.81457 14.6429 9.97398 14.7825 10.1793C14.922 10.3846 14.9977 10.6267 15 10.875V13.7596C14.9987 13.9285 14.9632 14.0954 14.8957 14.2503C14.8282 14.4051 14.73 14.5447 14.6072 14.6605C14.4844 14.7764 14.3394 14.8662 14.1809 14.9246C14.0225 14.9829 13.8539 15.0086 13.6853 15C2.6544 14.3135 0.428617 4.96733 0.00767922 1.39041C-0.011861 1.21476 0.00599238 1.03696 0.0600648 0.868702C0.114137 0.700449 0.203203 0.545558 0.321403 0.414217C0.439604 0.282877 0.584259 0.178065 0.745854 0.106676C0.907448 0.0352867 1.08232 -0.00106105 1.25896 2.35783e-05H4.04407C4.29261 0.000759609 4.53523 0.0758702 4.74075 0.215694C4.94627 0.355519 5.10528 0.553662 5.19733 0.784639L5.82585 2.35964C5.91826 2.58641 5.94183 2.83539 5.89363 3.07549C5.84543 3.31559 5.7276 3.53616 5.55484 3.70964L4.26319 5.00195C4.26319 5.00195 5.00704 10.0385 10.0006 10.6616Z" fill="white"/>
</svg>
