<svg width="24" height="24" viewBox="0 0 24 24" fill="none" xmlns="http://www.w3.org/2000/svg">
<path d="M2 21V19.4C2.6 19.35 3.07917 19.175 3.4375 18.875C3.79583 18.575 4.35833 18.425 5.125 18.425C5.89167 18.425 6.51667 18.6042 7 18.9625C7.48333 19.3208 8.04167 19.5 8.675 19.5C9.30833 19.5 9.82917 19.3208 10.2375 18.9625C10.6458 18.6042 11.2333 18.425 12 18.425C12.7667 18.425 13.3917 18.6042 13.875 18.9625C14.3583 19.3208 14.9167 19.5 15.55 19.5C16.1833 19.5 16.7083 19.3208 17.125 18.9625C17.5417 18.6042 18.1333 18.425 18.9 18.425C19.6667 18.425 20.225 18.575 20.575 18.875C20.925 19.175 21.4 19.35 22 19.4V21C21.4167 20.95 20.9125 20.7625 20.4875 20.4375C20.0625 20.1125 19.5333 19.95 18.9 19.95C18.2667 19.95 17.725 20.125 17.275 20.475C16.825 20.825 16.25 21 15.55 21C14.85 21 14.2417 20.825 13.725 20.475C13.2083 20.125 12.6333 19.95 12 19.95C11.3667 19.95 10.8125 20.125 10.3375 20.475C9.8625 20.825 9.275 21 8.575 21C7.875 21 7.28333 20.825 6.8 20.475C6.31667 20.125 5.75833 19.95 5.125 19.95C4.49167 19.95 3.95833 20.1125 3.525 20.4375C3.09167 20.7625 2.58333 20.95 2 21ZM2 16.3V14.8C2.6 14.75 3.07917 14.5792 3.4375 14.2875C3.79583 13.9958 4.35833 13.85 5.125 13.85C5.89167 13.85 6.5 14.0083 6.95 14.325C7.4 14.6417 7.94167 14.8 8.575 14.8C9.20833 14.8 9.74583 14.6417 10.1875 14.325C10.6292 14.0083 11.2333 13.85 12 13.85C12.7667 13.85 13.375 14.0083 13.825 14.325C14.275 14.6417 14.8167 14.8 15.45 14.8C16.0833 14.8 16.625 14.6417 17.075 14.325C17.525 14.0083 18.1333 13.85 18.9 13.85C19.6667 13.85 20.225 13.9958 20.575 14.2875C20.925 14.5792 21.4 14.75 22 14.8V16.3C21.4167 16.25 20.9125 16.0625 20.4875 15.7375C20.0625 15.4125 19.5333 15.25 18.9 15.25C18.2667 15.25 17.725 15.425 17.275 15.775C16.825 16.125 16.25 16.3 15.55 16.3C14.85 16.3 14.2417 16.125 13.725 15.775C13.2083 15.425 12.6333 15.25 12 15.25C11.3667 15.25 10.8292 15.425 10.3875 15.775C9.94583 16.125 9.375 16.3 8.675 16.3C7.975 16.3 7.36667 16.125 6.85 15.775C6.33333 15.425 5.75833 15.25 5.125 15.25C4.49167 15.25 3.95833 15.4125 3.525 15.7375C3.09167 16.0625 2.58333 16.25 2 16.3ZM7.2 11.1L10.575 7.725L9.225 6.375C8.65833 5.80833 8.08333 5.42917 7.5 5.2375C6.91667 5.04583 6.175 4.95 5.275 4.95V2.975C6.475 2.975 7.4625 3.125 8.2375 3.425C9.0125 3.725 9.76667 4.24167 10.5 4.975L16.825 11.3C16.6417 11.45 16.4292 11.5583 16.1875 11.625C15.9458 11.6917 15.7 11.725 15.45 11.725C14.8167 11.725 14.2708 11.55 13.8125 11.2C13.3542 10.85 12.75 10.675 12 10.675C11.25 10.675 10.65 10.85 10.2 11.2C9.75 11.55 9.20833 11.725 8.575 11.725C8.275 11.725 8.00417 11.6667 7.7625 11.55C7.52083 11.4333 7.33333 11.2833 7.2 11.1ZM16.7 3.075C17.3667 3.075 17.9292 3.30417 18.3875 3.7625C18.8458 4.22083 19.075 4.78333 19.075 5.45C19.075 6.11667 18.8458 6.67917 18.3875 7.1375C17.9292 7.59583 17.3667 7.825 16.7 7.825C16.0333 7.825 15.4708 7.59583 15.0125 7.1375C14.5542 6.67917 14.325 6.11667 14.325 5.45C14.325 4.78333 14.5542 4.22083 15.0125 3.7625C15.4708 3.30417 16.0333 3.075 16.7 3.075Z" fill="#0E2341"/>
</svg>
