<svg width="48" height="50" viewBox="0 0 48 50" fill="none" xmlns="http://www.w3.org/2000/svg">
<path d="M10.7059 42.2619C10.0369 42.2619 9.47421 42.0309 9.01786 41.569C8.56151 41.107 8.33333 40.5416 8.33333 39.8726C8.33333 39.2036 8.56431 38.6409 9.02625 38.1845C9.48819 37.7282 10.0537 37.5 10.7227 37.5C11.3917 37.5 11.9544 37.731 12.4107 38.1929C12.8671 38.6549 13.0952 39.2203 13.0952 39.8893C13.0952 40.5584 12.8643 41.121 12.4023 41.5774C11.9404 42.0337 11.3749 42.2619 10.7059 42.2619ZM17.8488 50C17.1797 50 16.6171 49.769 16.1607 49.3071C15.7044 48.8451 15.4762 48.2796 15.4762 47.6106C15.4762 46.9416 15.7072 46.3789 16.1691 45.9226C16.6311 45.4662 17.1965 45.238 17.8655 45.238C18.5345 45.238 19.0972 45.469 19.5536 45.931C20.0099 46.3929 20.2381 46.9584 20.2381 47.6274C20.2381 48.2964 20.0071 48.8591 19.5452 49.3155C19.0832 49.7718 18.5178 50 17.8488 50ZM24.9916 42.2619C24.3226 42.2619 23.7599 42.0309 23.3036 41.569C22.8472 41.107 22.619 40.5416 22.619 39.8726C22.619 39.2036 22.85 38.6409 23.312 38.1845C23.7739 37.7282 24.3394 37.5 25.0084 37.5C25.6774 37.5 26.2401 37.731 26.6964 38.1929C27.1528 38.6549 27.381 39.2203 27.381 39.8893C27.381 40.5584 27.15 41.121 26.688 41.5774C26.2261 42.0337 25.6606 42.2619 24.9916 42.2619ZM39.2773 42.2619C38.6083 42.2619 38.0456 42.0309 37.5893 41.569C37.1329 41.107 36.9048 40.5416 36.9048 39.8726C36.9048 39.2036 37.1357 38.6409 37.5977 38.1845C38.0596 37.7282 38.6251 37.5 39.2941 37.5C39.9631 37.5 40.5258 37.731 40.9821 38.1929C41.4385 38.6549 41.6667 39.2203 41.6667 39.8893C41.6667 40.5584 41.4357 41.121 40.9738 41.5774C40.5118 42.0337 39.9463 42.2619 39.2773 42.2619ZM32.1345 50C31.4655 50 30.9028 49.769 30.4464 49.3071C29.9901 48.8451 29.7619 48.2796 29.7619 47.6106C29.7619 46.9416 29.9929 46.3789 30.4548 45.9226C30.9168 45.4662 31.4822 45.238 32.1512 45.238C32.8203 45.238 33.3829 45.469 33.8393 45.931C34.2956 46.3929 34.5238 46.9584 34.5238 47.6274C34.5238 48.2964 34.2928 48.8591 33.8309 49.3155C33.3689 49.7718 32.8035 50 32.1345 50ZM12.5 32.1429C9.05302 32.1429 6.10794 30.9222 3.66476 28.481C1.22159 26.0397 0 23.0969 0 19.6527C0 16.5112 1.12103 13.7103 3.3631 11.25C5.60516 8.78968 8.39286 7.44048 11.7262 7.20238C12.996 4.98016 14.6726 3.22421 16.756 1.93452C18.8393 0.644841 21.1989 0 23.8347 0C27.429 0 30.4464 1.14087 32.8869 3.42262C35.3274 5.70437 36.8254 8.53175 37.381 11.9048C40.5159 12.0635 43.006 13.125 44.8512 15.0893C46.6964 17.0536 47.619 19.3576 47.619 22.0014C47.619 24.7941 46.6353 27.1825 44.6677 29.1667C42.7001 31.1508 40.3108 32.1429 37.5 32.1429H12.5ZM12.5 28.5714H37.5C39.3333 28.5714 40.8829 27.9266 42.1488 26.6369C43.4147 25.3472 44.0476 23.7996 44.0476 21.994C44.0476 20.1885 43.4147 18.6508 42.1488 17.381C40.8829 16.1111 39.3333 15.4762 37.5 15.4762H33.9286V13.6905C33.9286 10.873 32.9464 8.48214 30.9821 6.51786C29.0179 4.55357 26.6312 3.57143 23.8221 3.57143C21.7792 3.57143 19.9172 4.11706 18.236 5.20833C16.5549 6.2996 15.3175 7.77778 14.5238 9.64286L14.0476 10.7143H12.381C9.92064 10.7937 7.8373 11.6943 6.13095 13.4163C4.4246 15.1382 3.57143 17.2109 3.57143 19.6343C3.57143 22.1003 4.44304 24.2063 6.18625 25.9524C7.92942 27.6984 10.034 28.5714 12.5 28.5714Z" fill="#3D6CBB"/>
</svg>
