<svg width="80" height="80" viewBox="0 0 80 80" fill="none" xmlns="http://www.w3.org/2000/svg">
<path d="M53.3334 36.6667C54.2779 36.6667 55.0695 36.3472 55.7084 35.7083C56.3473 35.0694 56.6667 34.2778 56.6667 33.3333C56.6667 32.3889 56.3473 31.5972 55.7084 30.9583C55.0695 30.3194 54.2779 30 53.3334 30C52.389 30 51.5973 30.3194 50.9584 30.9583C50.3195 31.5972 50.0001 32.3889 50.0001 33.3333C50.0001 34.2778 50.3195 35.0694 50.9584 35.7083C51.5973 36.3472 52.389 36.6667 53.3334 36.6667ZM26.6667 28.3333H43.3334V23.3333H26.6667V28.3333ZM15.0001 70C13.1112 63.6667 11.2501 57.3472 9.41675 51.0417C7.58341 44.7361 6.66675 38.2778 6.66675 31.6667C6.66675 26.5556 8.44453 22.2222 12.0001 18.6667C15.5556 15.1111 19.889 13.3333 25.0001 13.3333H41.6667C43.2779 11.2222 45.2362 9.58334 47.5417 8.41667C49.8473 7.25001 52.3334 6.66667 55.0001 6.66667C56.389 6.66667 57.5695 7.15278 58.5417 8.12501C59.514 9.09723 60.0001 10.2778 60.0001 11.6667C60.0001 12 59.9584 12.3333 59.8751 12.6667C59.7917 13 59.6945 13.3056 59.5834 13.5833C59.3612 14.1944 59.1529 14.8194 58.9584 15.4583C58.764 16.0972 58.6112 16.75 58.5001 17.4167L66.0834 25H73.3334V48.25L63.9167 51.3333L58.3334 70H40.0001V63.3333H33.3334V70H15.0001ZM18.7501 65H28.3334V58.3333H45.0001V65H54.5834L59.8334 47.5L68.3334 44.5833V30H64.0001L53.3334 19.3333C53.389 17.9444 53.5695 16.5972 53.8751 15.2917C54.1806 13.9861 54.5001 12.6667 54.8334 11.3333C52.7223 11.8889 50.7223 12.7083 48.8334 13.7917C46.9445 14.875 45.5001 16.3889 44.5001 18.3333H25.0001C21.3175 18.3333 18.1747 19.6349 15.5715 22.2381C12.9683 24.8413 11.6667 27.9841 11.6667 31.6667C11.6667 37.3977 12.4723 42.9971 14.0834 48.4649C15.6945 53.9328 17.2501 59.4444 18.7501 65Z" fill="#756558"/>
</svg>
