<svg width="50" height="50" viewBox="0 0 50 50" fill="none" xmlns="http://www.w3.org/2000/svg">
<path d="M41.3016 50C40.3004 50 39.2991 49.9187 38.2979 49.7561C37.2966 49.5935 36.3162 49.3699 35.3567 49.0854L0 36.5244L0.813517 34.2073L18.8986 40.6098L23.2791 29.5732L13.3292 19.4512C12.3696 18.3943 11.9942 17.1951 12.2028 15.8537C12.4113 14.5122 13.1206 13.4959 14.3304 12.8049L24.03 7.31707C24.6141 6.99187 25.2399 6.81911 25.9074 6.79878C26.5749 6.77846 27.2007 6.86992 27.7847 7.07317C28.3688 7.27642 28.9007 7.60163 29.3805 8.04878C29.8602 8.49594 30.2044 9.02439 30.413 9.63415L31.2265 12.2561C31.9358 14.4512 32.9683 16.2195 34.3242 17.561C35.68 18.9024 37.3383 19.8984 39.2991 20.5488L40.6133 16.6463L42.9912 17.3171L40.5507 24.6951C37.7138 24.126 35.2315 23.0285 33.1039 21.4024C30.9762 19.7764 29.3492 17.5813 28.2228 14.8171L19.9625 19.4512L27.7222 28.2927L22.403 41.8293L31.3517 45L37.234 27.1951C37.6512 27.3171 38.0476 27.4289 38.423 27.5305C38.7985 27.6321 39.174 27.7236 39.5494 27.8049L33.6671 45.8537L36.2328 46.7073C37.0254 46.9919 37.839 47.2053 38.6733 47.3476C39.5077 47.4898 40.3838 47.561 41.3016 47.561C42.5115 47.561 43.6796 47.4492 44.806 47.2256C45.9324 47.002 47.038 46.626 48.1227 46.0976L50 47.9268C48.6233 48.6179 47.2257 49.1362 45.8073 49.4817C44.3888 49.8272 42.8869 50 41.3016 50ZM36.7334 8.90244C35.4819 8.90244 34.4076 8.46545 33.5106 7.59146C32.6137 6.71748 32.1652 5.67073 32.1652 4.45122C32.1652 3.23171 32.6137 2.18496 33.5106 1.31098C34.4076 0.436992 35.4819 0 36.7334 0C37.985 0 39.0592 0.436992 39.9562 1.31098C40.8531 2.18496 41.3016 3.23171 41.3016 4.45122C41.3016 5.67073 40.8531 6.71748 39.9562 7.59146C39.0592 8.46545 37.985 8.90244 36.7334 8.90244Z" fill="#3D6CBB"/>
</svg>
