<svg width="14" height="10" viewBox="0 0 14 10" fill="none" xmlns="http://www.w3.org/2000/svg">
<path d="M12.25 2.72222V1.63333C12.25 0.735 11.4625 0 10.5 0H8.16667C7.7175 0 7.30917 0.163333 7 0.424667C6.69083 0.163333 6.2825 0 5.83333 0H3.5C2.5375 0 1.75 0.735 1.75 1.63333V2.72222C0.7875 2.72222 0 3.45722 0 4.35556V7.07778C0 7.97611 0.7875 8.71111 1.75 8.71111V9.8H2.91667V8.71111H11.0833V9.8H12.25V8.71111C13.2125 8.71111 14 7.97611 14 7.07778V4.35556C14 3.45722 13.2125 2.72222 12.25 2.72222ZM8.16667 1.08889H10.5C10.8208 1.08889 11.0833 1.33389 11.0833 1.63333V3.14689C10.7275 3.44633 10.5 3.87644 10.5 4.35556V5.44444H7.58333V1.63333C7.58333 1.33389 7.84583 1.08889 8.16667 1.08889ZM2.91667 1.63333C2.91667 1.33389 3.17917 1.08889 3.5 1.08889H5.83333C6.15417 1.08889 6.41667 1.33389 6.41667 1.63333V5.44444H3.5V4.35556C3.5 3.87644 3.2725 3.44633 2.91667 3.14689V1.63333ZM12.8333 7.07778C12.8333 7.37722 12.5708 7.62222 12.25 7.62222H1.75C1.42917 7.62222 1.16667 7.37722 1.16667 7.07778V4.35556C1.16667 4.05611 1.42917 3.81111 1.75 3.81111C2.07083 3.81111 2.33333 4.05611 2.33333 4.35556V6.53333H11.6667V4.35556C11.6667 4.05611 11.9292 3.81111 12.25 3.81111C12.5708 3.81111 12.8333 4.05611 12.8333 4.35556V7.07778Z" fill="#B7B7B7"/>
</svg>
