<svg width="40" height="40" viewBox="0 0 40 40" fill="none" xmlns="http://www.w3.org/2000/svg">
<rect width="40" height="40" rx="1" fill="white"/>
<path fill-rule="evenodd" clip-rule="evenodd" d="M37.7922 40C39.0113 40 39.9997 39.0114 39.9997 37.7924V2.20761C39.9997 0.988104 39.0112 0 37.7922 0H2.20761C0.988104 0 0 0.988254 0 2.20761V37.7922C0 39.0114 0.988104 39.9998 2.20761 39.9998L37.7922 40ZM27.5992 40V24.5099H32.7985L33.577 18.473H27.599V14.6188C27.599 12.871 28.0843 11.6799 30.5908 11.6799L33.7874 11.6785V6.27917C33.2345 6.20574 31.3368 6.04133 29.1294 6.04133C24.5204 6.04133 21.365 8.85457 21.365 14.0211V18.473H16.1523V24.5099H21.365V39.9998L27.5992 40Z" fill="#0E2341"/>
</svg>
