<svg width="50" height="50" viewBox="0 0 50 50" fill="none" xmlns="http://www.w3.org/2000/svg">
<path d="M23.2955 8.52273V0H26.7045V8.52273H23.2955ZM37.8409 14.5455L35.4545 12.1591L41.4773 6.07955L43.8636 8.52273L37.8409 14.5455ZM41.4773 26.7045V23.2955H50V26.7045H41.4773ZM23.2955 50V41.4773H26.7045V50H23.2955ZM12.1023 14.4886L6.13636 8.52273L8.52273 6.13636L14.5455 12.1591L12.1023 14.4886ZM41.5341 43.8636L35.4545 37.8409L37.7841 35.5114L43.9205 41.4205L41.5341 43.8636ZM0 26.7045V23.2955H8.52273V26.7045H0ZM8.57955 43.8636L6.13636 41.4773L12.1023 35.5114L13.3523 36.6477L14.6023 37.8409L8.57955 43.8636ZM25 38.6364C21.2121 38.6364 17.9924 37.3106 15.3409 34.6591C12.6894 32.0076 11.3636 28.7879 11.3636 25C11.3636 21.2121 12.6894 17.9924 15.3409 15.3409C17.9924 12.6894 21.2121 11.3636 25 11.3636C28.7879 11.3636 32.0076 12.6894 34.6591 15.3409C37.3106 17.9924 38.6364 21.2121 38.6364 25C38.6364 28.7879 37.3106 32.0076 34.6591 34.6591C32.0076 37.3106 28.7879 38.6364 25 38.6364ZM25 35.2273C27.8409 35.2273 30.2557 34.233 32.2443 32.2443C34.233 30.2557 35.2273 27.8409 35.2273 25C35.2273 22.1591 34.233 19.7443 32.2443 17.7557C30.2557 15.767 27.8409 14.7727 25 14.7727C22.1591 14.7727 19.7443 15.767 17.7557 17.7557C15.767 19.7443 14.7727 22.1591 14.7727 25C14.7727 27.8409 15.767 30.2557 17.7557 32.2443C19.7443 34.233 22.1591 35.2273 25 35.2273Z" fill="#3D6CBB"/>
</svg>
