<svg width="22" height="22" viewBox="0 0 22 22" fill="none" xmlns="http://www.w3.org/2000/svg">
<path d="M18.9572 22H3.04284C1.36498 22 0 20.635 0 18.9572V3.04284C0 1.36498 1.36498 0 3.04284 0H18.9572C20.635 0 22 1.36498 22 3.04284V18.9572C22 20.635 20.635 22 18.9572 22ZM3.04284 0.977778C1.90422 0.977778 0.977778 1.90422 0.977778 3.04284V18.9572C0.977778 20.0958 1.90422 21.0222 3.04284 21.0222H18.9572C20.0958 21.0222 21.0222 20.0958 21.0222 18.9572V3.04284C21.0222 1.90422 20.0958 0.977778 18.9572 0.977778H3.04284Z" fill="white"/>
<path d="M16.0258 6.11365L5.39439 10.1936C4.96657 10.3836 4.82186 10.7641 5.29097 10.9706L8.01841 11.8332L14.613 7.77727C14.973 7.52264 15.3417 7.59054 15.0245 7.87064L9.36062 12.9741L9.1827 15.1339C9.3475 15.4674 9.64924 15.4689 9.8417 15.3032L11.4087 13.8276L14.0924 15.8275C14.7157 16.1948 15.0549 15.9578 15.189 15.2847L16.9493 6.98981C17.132 6.16127 16.8203 5.79622 16.0258 6.11365Z" fill="white"/>
</svg>
