<svg width="22" height="22" viewBox="0 0 22 22" fill="none" xmlns="http://www.w3.org/2000/svg">
<path d="M9.55394 18.1458C8.50772 18.1458 7.52114 17.8121 6.70054 17.1805C6.54776 17.0629 6.40012 16.9341 6.2625 16.7979C5.30428 15.851 4.82223 14.5901 4.90485 13.2471C4.96768 12.2317 5.37688 11.2532 6.05692 10.4915C6.95745 9.48295 8.19923 8.92733 9.55394 8.92733C9.78592 8.92733 10.0211 8.94468 10.2523 8.9789C10.4921 9.01435 10.6698 9.22017 10.6698 9.46266V11.67C10.6698 11.8269 10.5945 11.9743 10.4674 12.0662C10.3401 12.1579 10.1768 12.1833 10.0277 12.1342C9.87685 12.0843 9.71968 12.0589 9.56054 12.0589C9.15917 12.0589 8.78321 12.2163 8.50185 12.5018C8.22221 12.7854 8.07163 13.1611 8.0775 13.5591C8.08508 14.0726 8.35568 14.5383 8.8013 14.8052C9.00614 14.9277 9.23983 14.9996 9.47719 15.0125C9.66492 15.0225 9.84997 14.9983 10.0272 14.9397C10.6354 14.739 11.0436 14.1753 11.0436 13.5371L11.0463 4.34326C11.0463 4.07339 11.2653 3.85437 11.5352 3.85437H13.709C13.9772 3.85437 14.1952 4.07021 14.1979 4.33837C14.1999 4.52097 14.2182 4.7021 14.2531 4.87688C14.3908 5.56744 14.7777 6.1827 15.3436 6.60901C15.8418 6.98473 16.4353 7.18468 17.0613 7.18786C17.1002 7.18615 17.1388 7.18908 17.1779 7.1969C17.4067 7.24237 17.5712 7.44306 17.5712 7.67626V9.84057C17.5712 10.1104 17.3522 10.3295 17.0826 10.3295C17.0819 10.3295 17.0811 10.3295 17.0804 10.3295C16.271 10.3295 15.4847 10.1708 14.7428 9.85768C14.5582 9.7797 14.3781 9.69268 14.2028 9.59735L14.2118 13.5529C14.2067 14.781 13.7215 15.9324 12.8459 16.7982C12.1355 17.5002 11.2387 17.9485 10.2528 18.095C10.0213 18.1287 9.78641 18.1458 9.55394 18.1458ZM9.55394 9.9051C8.48156 9.9051 7.49865 10.3446 6.78634 11.1427C6.2515 11.7414 5.93005 12.5101 5.88068 13.3073C5.81565 14.3643 6.19528 15.3569 6.94963 16.1025C7.05914 16.2105 7.17599 16.3127 7.29699 16.4059C7.94477 16.9048 8.72528 17.1683 9.55394 17.1683C9.7385 17.1683 9.92574 17.1543 10.1096 17.1275C10.8881 17.0118 11.5968 16.6574 12.1583 16.1025C12.8478 15.421 13.2299 14.5151 13.2338 13.552L13.2226 8.69608C13.2221 8.50957 13.3279 8.33919 13.4951 8.25657C13.6623 8.17419 13.8618 8.19399 14.0099 8.3079C14.3502 8.57044 14.7247 8.78872 15.1226 8.9569C15.5937 9.15564 16.0865 9.28006 16.5932 9.3287V8.1363C15.9261 8.05393 15.2981 7.79995 14.7547 7.39001C13.997 6.81899 13.4783 5.99424 13.2939 5.06804C13.2785 4.9903 13.2656 4.91159 13.2548 4.83239H12.0241L12.0216 13.5373C12.0216 14.5979 11.3435 15.5347 10.3342 15.8678C10.0406 15.9649 9.7341 16.0047 9.42365 15.9886C9.02863 15.9668 8.63972 15.8478 8.29921 15.6439C7.56074 15.202 7.11243 14.4281 7.09972 13.5735C7.0897 12.9115 7.34025 12.2872 7.80519 11.8154C8.30239 11.3107 8.98757 11.0481 9.69181 11.0845V9.90755C9.64585 9.90584 9.5999 9.9051 9.55394 9.9051Z" fill="white"/>
<path d="M18.9572 22H3.04284C1.36498 22 0 20.635 0 18.9572V3.04284C0 1.36498 1.36498 0 3.04284 0H18.9572C20.635 0 22 1.36498 22 3.04284V18.9572C22 20.635 20.635 22 18.9572 22ZM3.04284 0.977778C1.90422 0.977778 0.977778 1.90422 0.977778 3.04284V18.9572C0.977778 20.0958 1.90422 21.0222 3.04284 21.0222H18.9572C20.0958 21.0222 21.0222 20.0958 21.0222 18.9572V3.04284C21.0222 1.90422 20.0958 0.977778 18.9572 0.977778H3.04284Z" fill="white"/>
</svg>
